<?xml version="1.0" encoding="iso-8859-1"?>
<!-- Generator: Adobe Illustrator 19.0.0, SVG Export Plug-In . SVG Version: 6.00 Build 0)  -->
<svg version="1.1" id="Layer_1" xmlns="http://www.w3.org/2000/svg" xmlns:xlink="http://www.w3.org/1999/xlink" x="0px" y="0px"
	 viewBox="0 0 512 512" style="enable-background:new 0 0 512 512;" xml:space="preserve">
<g>
	<rect x="47.865" y="4.002" style="fill:#1D1D1B;" width="64.036" height="15.677"/>
	<rect x="167.945" y="28.019" style="fill:#1D1D1B;" width="32.021" height="15.677"/>
	<rect x="159.939" y="4.002" style="fill:#1D1D1B;" width="48.032" height="15.677"/>
	<path style="fill:#1D1D1B;" d="M487.986,196.128v-56.203c0-10.406-6.7-19.269-16.011-22.519V83.721h16.178V68.044h-48.031v15.677
		h16.177v33.684c-9.31,3.25-16.01,12.114-16.01,22.519v56.203h-24.349v-56.202c0-10.406-6.7-19.269-16.011-22.519V83.721h16.178
		V68.044h-48.032v15.677h16.178v33.684c-9.31,3.25-16.01,12.114-16.01,22.519v56.203h-24.35v-56.202
		c0-10.406-6.699-19.269-16.01-22.519V83.721h16.178V68.044h-48.032v15.677h16.178v33.684c-9.31,3.25-16.011,12.114-16.011,22.519
		v56.203h-64.375V68.044h-7.839c-4.507,0-8.172-3.665-8.172-8.172v-7.839h-63.709v7.839c0,4.507-3.665,8.172-8.172,8.172h-7.839
		v128.084h-16.344V98.932l-17.733-70.913H57.755L40.026,98.932v97.196H0v55.703h512v-55.703H487.986z M455.964,139.925
		c0-4.507,3.665-8.172,8.171-8.172c4.506,0,8.172,3.665,8.172,8.172v56.203h-16.344v-56.203H455.964z M383.917,139.925
		c0-4.507,3.665-8.172,8.171-8.172c4.506,0,8.172,3.665,8.172,8.172v56.203h-16.344v-56.203H383.917z M311.87,139.925
		c0-4.507,3.666-8.172,8.172-8.172c4.506,0,8.171,3.665,8.171,8.172v56.203h-16.344v-56.203H311.87z M151.766,82.398
		c6.855-2.392,12.295-7.832,14.687-14.687h35.001c2.392,6.855,7.832,12.295,14.687,14.687v41.683h-64.376V82.398z M151.766,139.759
		h64.375v24.349h-64.375V139.759z M151.766,179.785h64.375v16.344h-64.375V179.785z M55.703,100.862l14.292-57.166h19.78
		l14.292,57.166v23.219H55.703V100.862z M55.703,139.759h48.364v16.343H55.703V139.759z M55.703,171.779h48.364v24.349H55.703
		V171.779z M496.323,236.154H15.677v-24.349h280.516h47.698h24.35h47.698h24.349h47.698h8.338v24.349H496.323z"/>
	<rect x="304.033" y="260.169" style="fill:#1D1D1B;" width="64.036" height="15.677"/>
	<rect x="400.093" y="260.169" style="fill:#1D1D1B;" width="64.036" height="15.677"/>
	<path style="fill:#1D1D1B;" d="M471.974,324.212h-16.01v-40.026h-47.698v40.026h-16.011v128.083h-16.344V324.212h-16.01v-40.026
		h-47.698v40.026h-16.011v128.083h-80.385v-56.203c0-10.405-6.7-19.269-16.011-22.519v-33.684h16.178v-15.677h-48.032v15.677h16.177
		v33.684c-9.31,3.25-16.011,12.114-16.011,22.519v56.203H143.76v-56.203c0-10.405-6.7-19.269-16.011-22.519v-33.684h16.177v-15.677
		H95.895v15.677h16.178v33.684c-9.31,3.25-16.011,12.114-16.011,22.519v56.203H71.714v-56.203c0-10.405-6.7-19.269-16.011-22.519
		v-33.684h16.178v-15.677H23.849v15.677h16.177v33.684c-9.31,3.25-16.01,12.114-16.01,22.519v56.203H0v55.703h512v-55.703h-40.026
		V324.212z M407.933,339.889h16.011v-40.026h16.344v40.026h16.01v16.344h-48.364V339.889z M407.933,371.91h48.364v80.385h-48.364
		V371.91z M311.87,339.889h16.011v-40.026h16.344v40.026h16.01v51.514c-5.848-6.821-14.516-11.155-24.183-11.155
		c-9.668,0-18.336,4.334-24.183,11.155v-51.514H311.87z M352.229,412.102c0,8.92-7.256,16.178-16.178,16.178
		c-8.919,0-16.177-7.258-16.177-16.178c0-8.92,7.256-16.177,16.177-16.177C344.973,395.925,352.229,403.182,352.229,412.102z
		 M311.87,432.8c5.847,6.821,14.515,11.156,24.183,11.156c9.667,0,18.335-4.334,24.183-11.155v19.493h-48.364V432.8H311.87z
		 M183.787,396.092c0-4.507,3.665-8.172,8.172-8.172s8.172,3.665,8.172,8.172v56.203h-16.344V396.092z M111.74,396.092
		c0-4.507,3.665-8.172,8.172-8.172c4.507,0,8.172,3.665,8.172,8.172v56.203H111.74V396.092z M39.694,396.092
		c0-4.507,3.665-8.172,8.172-8.172c4.506,0,8.171,3.665,8.171,8.172v56.203H39.694V396.092z M496.323,467.972v24.349H15.677v-24.349
		H496.323z"/>
</g>
<g>
</g>
<g>
</g>
<g>
</g>
<g>
</g>
<g>
</g>
<g>
</g>
<g>
</g>
<g>
</g>
<g>
</g>
<g>
</g>
<g>
</g>
<g>
</g>
<g>
</g>
<g>
</g>
<g>
</g>
</svg>
