<?xml version="1.0" encoding="iso-8859-1"?>
<!-- Generator: Adobe Illustrator 19.0.0, SVG Export Plug-In . SVG Version: 6.00 Build 0)  -->
<svg version="1.1" id="Layer_1" xmlns="http://www.w3.org/2000/svg" xmlns:xlink="http://www.w3.org/1999/xlink" x="0px" y="0px"
	 viewBox="0 0 473.957 473.957" style="enable-background:new 0 0 473.957 473.957;" xml:space="preserve">
<path style="fill:#A2D4DE;" d="M0,236.982C0,106.091,106.106,0,236.975,0c130.884,0,236.982,106.095,236.982,236.982
	c0,130.873-106.098,236.975-236.982,236.975C106.106,473.957,0,367.855,0,236.982z"/>
<path style="fill:#F4DF81;" d="M0,236.982h473.957c0,130.873-106.098,236.975-236.982,236.975C106.106,473.957,0,367.855,0,236.982z
	"/>
<polygon style="fill:#693215;" points="59.663,288.971 87.771,296.731 229.162,341.371 319.073,323.261 368.192,309.741 
	378.688,303.025 395.11,298.486 414.197,296.885 237.596,251.332 "/>
<polygon style="fill:#8C7B69;" points="308.017,196.212 307.755,196.141 307.755,269.121 308.017,269.195 357.401,282.831 
	357.401,209.854 "/>
<polygon style="fill:#53431F;" points="357.663,209.926 357.663,282.905 373.894,287.392 373.894,214.408 "/>
<path style="fill:#8A6638;" d="M410.785,218.165l-110.746-55.584l-50.843-34.589c-5.553-5.545-14.761-5.336-20.58,0.483
	l-48.277,33.268L64.044,218.169c-4.647,4.644-4.647,12.172,0,16.816l172.392,37.713l177.765-48.785
	C414.197,223.909,415.432,222.808,410.785,218.165z"/>
<path style="fill:#82623E;" d="M264.447,138.368l-15.252-10.376c-5.553-5.545-14.761-5.336-20.58,0.483l-15.334,10.567l26.185,5.759
	L264.447,138.368z"/>
<path style="fill:#927352;" d="M264.447,138.368l-15.252-10.376c-2.769-2.776-6.47-4.108-10.189-4.019l0.46,20.827L264.447,138.368z
	"/>
<path style="fill:#82623E;" d="M410.785,218.165l-110.746-55.584l-60.22,16.988l-1.755,0.494l-57.728-18.32L64.041,218.169
	c-4.647,4.644-4.647,12.172,0,16.816l172.392,37.713l177.765-48.785C414.197,223.909,415.432,222.808,410.785,218.165z"/>
<path style="fill:#886A4B;" d="M410.785,218.165l-52.606-26.406l-120.467,29.702l-118.54-30.043l-55.132,26.746
	c-4.647,4.644-4.647,12.172,0,16.816l172.392,37.713l177.765-48.785C414.197,223.909,415.432,222.808,410.785,218.165z"/>
<path style="fill:#926D3E;" d="M180.335,161.739l-61.163,29.68l-55.132,26.746c-4.647,4.644-4.647,12.172,0,16.816l172.972,40.075
	l1.25-94.997L180.335,161.739z"/>
<path style="fill:#8D6341;" d="M237.712,221.461l-118.54-30.043l-55.132,26.746c-4.647,4.644-4.647,12.172,0,16.816l172.706,39.981
	L237.712,221.461z"/>
<polygon style="fill:#6A5D56;" points="237.098,272.447 236.436,272.694 236.436,345.674 237.012,345.835 252.93,341.457 
	253.001,268.122 "/>
<polygon style="fill:#82766E;" points="252.709,268.178 252.93,268.477 252.93,341.457 253.192,341.386 269.592,336.877 
	269.663,263.5 "/>
<polygon style="fill:#C39269;" points="269.663,263.5 269.678,336.847 286.086,332.331 285.801,259.059 "/>
<polygon style="fill:#6A5D56;" points="269.592,263.89 269.592,336.877 269.678,336.847 269.678,263.86 "/>
<polygon style="fill:#9A652D;" points="286.445,258.999 286.348,332.263 302.58,327.799 302.669,254.535 "/>
<g>
	<polygon style="fill:#82766E;" points="285.801,259.059 286.086,332.331 286.348,332.263 286.445,258.999 	"/>
</g>
<polygon style="fill:#53431F;" points="302.58,254.498 302.58,254.812 302.58,327.799 302.838,327.724 319.073,323.261 
	319.126,249.996 "/>
<polygon style="fill:#CBB5A2;" points="319.126,249.996 319.302,251.108 319.073,323.261 319.332,323.189 296.039,329.431 "/>
<polygon style="fill:#744A20;" points="351.964,241.226 351.698,241.3 351.698,314.28 351.964,314.213 368.192,309.741 
	368.192,236.762 "/>
<polygon style="fill:#CBB5A2;" points="351.642,241.409 351.642,314.396 368.136,309.857 357.135,270.644 "/>
<polygon style="fill:#66472A;" points="378.426,300.585 384.053,232.227 367.822,236.691 367.822,309.674 378.688,303.025 
	378.688,300.585 "/>
<polygon style="fill:#693215;" points="414.197,296.885 414.197,223.909 400.73,227.617 395.11,298.486 "/>
<polygon style="fill:#A07649;" points="399.589,227.931 384.24,232.155 383.979,232.227 378.358,303.025 378.617,303.025 
	387.488,300.585 393.969,298.8 395.11,298.486 400.73,227.617 "/>
<polygon style="fill:#6A5D56;" points="71.524,227.141 71.371,292.2 87.771,296.731 87.932,231.677 "/>
<polygon style="fill:#8C7B69;" points="88.194,231.751 87.932,231.677 87.771,296.731 88.033,296.806 104.594,309.259 
	104.594,236.279 "/>
<polygon style="fill:#693215;" points="71.438,227.119 59.816,223.909 59.663,288.971 71.285,292.177 71.371,292.2 71.524,227.141 
	"/>
<polygon style="fill:#966439;" points="104.684,236.301 104.684,309.281 121.088,313.813 121.088,240.833 "/>
<polygon style="fill:#6A5D56;" points="104.594,236.279 104.441,301.337 104.684,309.281 104.684,236.301 "/>
<polygon style="fill:#66472A;" points="121.354,240.904 121.088,240.833 121.088,313.813 121.354,313.884 137.578,318.37 
	137.578,245.386 "/>
<polygon style="fill:#53431F;" points="137.241,245.379 137.578,318.37 154.442,318.475 154.072,249.944 "/>
<polygon style="fill:#A67F52;" points="154.334,250.019 154.072,249.944 154.442,318.475 154.708,318.546 170.588,322.931 
	170.206,254.404 "/>
<polygon style="fill:#763517;" points="170.82,254.573 170.206,254.404 170.588,322.931 171.202,323.1 187.074,327.485 
	186.697,258.958 "/>
<polygon style="fill:#775625;" points="186.966,259.029 186.697,258.958 187.074,327.485 187.336,327.56 203.19,336.495 
	203.19,263.515 "/>
<polygon style="fill:#643014;" points="203.452,263.59 203.452,336.57 219.684,341.049 219.684,268.069 "/>
<polygon style="fill:#6A5D56;" points="203.19,263.515 203.19,336.495 203.452,336.57 203.452,263.59 "/>
<polygon style="fill:#2E2010;" points="219.946,268.137 219.684,268.069 219.684,341.049 219.946,341.124 236.436,345.674 
	236.436,272.694 "/>
<g>
</g>
<g>
</g>
<g>
</g>
<g>
</g>
<g>
</g>
<g>
</g>
<g>
</g>
<g>
</g>
<g>
</g>
<g>
</g>
<g>
</g>
<g>
</g>
<g>
</g>
<g>
</g>
<g>
</g>
</svg>
