<?xml version="1.0" encoding="iso-8859-1"?>
<!-- Generator: Adobe Illustrator 19.0.0, SVG Export Plug-In . SVG Version: 6.00 Build 0)  -->
<svg version="1.1" id="Layer_1" xmlns="http://www.w3.org/2000/svg" xmlns:xlink="http://www.w3.org/1999/xlink" x="0px" y="0px"
	 viewBox="0 0 512 512" style="enable-background:new 0 0 512 512;" xml:space="preserve">
<path style="fill:#C1F4D3;" d="M242.087,0.002L242.087,0.002c86.061,0,155.826,69.766,155.826,155.825l0,0l-29.607,315.806
	C366.161,494.512,346.958,512,323.979,512H160.195c-22.979,0-42.182-17.488-44.327-40.366L86.261,155.828l0,0
	C86.261,69.768,156.026,0.002,242.087,0.002z"/>
<path style="fill:#D9FCF5;" d="M370.087,150.263c0,70.692-57.307,127.999-128,127.999s-128-57.307-128-127.999
	s57.307-127.999,128-127.999S370.087,79.57,370.087,150.263z"/>
<path style="fill:#FFFFFF;" d="M200.887,61.384c2.983,5.375,1.043,12.15-4.332,15.133c-15.585,8.647-27.842,22.486-34.512,38.965
	c-1.753,4.33-5.92,6.957-10.321,6.957c-1.391,0-2.804-0.262-4.173-0.816c-5.698-2.306-8.447-8.795-6.141-14.494
	c8.575-21.182,24.324-38.967,44.346-50.077C191.13,54.071,197.905,56.009,200.887,61.384z M236.522,44.524h-2.226
	c-6.147,0-11.13,4.983-11.13,11.13s4.983,11.13,11.13,11.13h2.226c6.147,0,11.13-4.983,11.13-11.13S242.669,44.524,236.522,44.524z"
	/>
<path style="fill:#7A1868;" d="M115.868,471.634L86.261,155.828h311.652l-29.607,315.806C366.161,494.512,346.958,512,323.979,512
	H160.195C137.216,512,118.013,494.512,115.868,471.634z"/>
<path style="fill:#A4117F;" d="M180.646,331.532l-16.472-175.704h233.739l-16.472,175.704
	c-4.858,51.817-48.353,91.424-100.398,91.424l0,0C228.999,422.957,185.504,383.349,180.646,331.532z"/>
<path style="fill:#D9FCF5;" d="M305.051,347.186c4.346,4.346,4.346,11.394,0,15.741c-2.174,2.174-5.022,3.26-7.87,3.26
	s-5.698-1.086-7.87-3.26l-7.87-7.87l-7.869,7.869c-2.174,2.174-5.022,3.26-7.87,3.26c-2.848,0-5.697-1.086-7.87-3.26
	c-4.346-4.346-4.348-11.394,0-15.741l7.87-7.87l-23.613-23.61l-23.611,23.611l7.87,7.87c4.346,4.346,4.346,11.394,0,15.741
	c-2.173,2.173-5.022,3.26-7.87,3.26c-2.849,0-5.697-1.086-7.87-3.26l-7.869-7.869l-7.87,7.87c-2.174,2.174-5.022,3.26-7.87,3.26
	s-5.698-1.086-7.87-3.26c-4.346-4.346-4.346-11.394,0-15.741l7.87-7.87l-7.87-7.87c-4.346-4.346-4.346-11.394,0-15.741
	s11.393-4.346,15.741,0l7.87,7.87l23.611-23.611l-23.611-23.611l-7.87,7.87c-2.174,2.174-5.022,3.26-7.87,3.26
	s-5.698-1.086-7.87-3.26c-4.346-4.346-4.346-11.394,0-15.742l7.87-7.87l-7.87-7.87c-4.346-4.346-4.346-11.394,0-15.742
	c4.346-4.348,11.394-4.346,15.742,0l7.87,7.87l7.87-7.87c4.346-4.346,11.394-4.346,15.742,0c4.346,4.346,4.346,11.394,0,15.742
	l-7.87,7.87l23.611,23.611l23.611-23.611l-7.87-7.87c-4.346-4.346-4.346-11.394,0-15.742c4.346-4.346,11.394-4.346,15.742,0
	l7.87,7.87l7.87-7.87c4.346-4.346,11.394-4.346,15.742,0c4.348,4.346,4.346,11.394,0,15.742l-7.87,7.87l7.87,7.87
	c4.346,4.346,4.346,11.394,0,15.742c-2.174,2.174-5.022,3.26-7.87,3.26s-5.698-1.086-7.87-3.26l-7.87-7.87l-23.611,23.611
	l23.611,23.611l7.87-7.87c4.346-4.346,11.394-4.348,15.741,0c4.346,4.346,4.348,11.394,0,15.741l-7.87,7.87L305.051,347.186z"/>
<path style="fill:#00A384;" d="M275.478,111.307c0-6.147,4.983-11.13,11.13-11.13h44.522c6.147,0,11.13,4.983,11.13,11.13
	c0,6.147-4.983,11.13-11.13,11.13h-44.522C280.461,122.437,275.478,117.454,275.478,111.307z M412.621,144.698H71.553
	c-5.708,0-10.336,4.983-10.336,11.13c0,6.147,4.627,11.13,10.336,11.13h341.069c5.708,0,10.336-4.983,10.336-11.13
	C422.958,149.681,418.33,144.698,412.621,144.698z"/>
<path style="fill:#FF4800;" d="M450.783,11.13c0,6.147-4.983,11.13-11.13,11.13h-66.436c-9.156,0-17.269,5.493-20.669,13.993
	l-34.473,86.183h-23.111c-0.001-1.378,0.247-2.778,0.79-4.136l36.126-90.313C338.679,10.986,354.905,0,373.216,0h66.436
	C445.799,0,450.783,4.983,450.783,11.13z"/>
<g>
</g>
<g>
</g>
<g>
</g>
<g>
</g>
<g>
</g>
<g>
</g>
<g>
</g>
<g>
</g>
<g>
</g>
<g>
</g>
<g>
</g>
<g>
</g>
<g>
</g>
<g>
</g>
<g>
</g>
</svg>
