<?xml version="1.0"?>
<svg xmlns="http://www.w3.org/2000/svg" xmlns:xlink="http://www.w3.org/1999/xlink" version="1.1" id="Capa_1" x="0px" y="0px" viewBox="0 0 511.999 511.999" style="enable-background:new 0 0 511.999 511.999;" xml:space="preserve" width="512px" height="512px" class=""><g><g>
	<g>
		<path d="M322.268,0C217.672,0,132.575,85.096,132.575,189.692c0,5.562,0.25,11.128,0.734,16.663H96.86v37.677    c-19.004,15.709-30.136,39.071-30.136,64.014c0,45.802,37.262,83.065,83.065,83.065c30.602,0,57.372-16.646,71.783-41.347    c30.813,19.198,65.95,29.622,100.697,29.622c104.596,0,189.692-85.096,189.692-189.692S426.864,0,322.268,0z M149.788,361.059    c-29.233,0-53.014-23.782-53.014-53.014c0-16.313,7.475-31.56,20.165-41.59h65.699c12.689,10.031,20.165,25.278,20.165,41.59    C202.802,337.278,179.021,361.059,149.788,361.059z M322.268,349.335c-31.245,0-62.995-10.134-90.371-28.689    c0.628-4.11,0.955-8.318,0.955-12.6c0-24.941-11.133-48.306-30.137-64.016v-37.675h-39.215    c-0.574-5.523-0.874-11.094-0.874-16.663c0.001-88.027,71.617-159.642,159.643-159.642S481.91,101.666,481.91,189.692    S410.294,349.335,322.268,349.335z" data-original="#000000" class="active-path" data-old_color="#2b2c2e" fill="#2b2c2e"/>
	</g>
</g><g>
	<g>
		<polygon points="252.369,231.095 252.369,204.734 299.537,204.734 299.537,118.239 222.504,118.239 222.504,148.289     269.487,148.289 269.487,174.683 222.319,174.683 222.319,261.146 299.777,261.146 299.777,231.095   " data-original="#000000" class="active-path" data-old_color="#2b2c2e" fill="#2b2c2e"/>
	</g>
</g><g>
	<g>
		<polygon points="389.879,117.984 389.879,170.681 359.829,170.681 359.829,117.984 329.779,117.984 329.779,200.731     389.879,200.731 389.879,261.351 419.929,261.351 419.929,117.984   " data-original="#000000" class="active-path" data-old_color="#2b2c2e" fill="#2b2c2e"/>
	</g>
</g><g>
	<g>
		<path d="M201.804,399.24H97.772c-53.891,0-97.733,43.844-97.733,97.734v15.025h299.498v-15.025    C299.537,443.084,255.695,399.24,201.804,399.24z M31.77,481.95c6.851-30.114,33.843-52.659,66.003-52.659h104.031    c32.159,0,59.152,22.545,66.003,52.659H31.77z" data-original="#000000" class="active-path" data-old_color="#2b2c2e" fill="#2b2c2e"/>
	</g>
</g></g> </svg>
