<?xml version="1.0"?>
<svg xmlns="http://www.w3.org/2000/svg" height="512px" version="1.1" viewBox="-91 0 512 512.00003" width="512px" class=""><g><g id="surface1">
<path d="M 309.109375 203.875 L 272.28125 203.875 L 272.28125 106.90625 C 272.28125 47.957031 224.324219 0 165.375 0 C 106.425781 0 58.46875 47.957031 58.46875 106.90625 L 58.46875 203.878906 L 21.492188 203.878906 C 9.640625 203.878906 0 213.519531 0 225.367188 L 0 490.507812 C 0 502.359375 9.640625 512 21.492188 512 L 309.109375 512 C 320.957031 512 330.597656 502.359375 330.597656 490.507812 L 330.597656 225.367188 C 330.597656 213.519531 320.957031 203.875 309.109375 203.875 Z M 88.5 106.90625 C 88.5 64.519531 122.988281 30.03125 165.375 30.03125 C 207.761719 30.03125 242.25 64.519531 242.25 106.90625 L 242.25 203.878906 L 217.757812 203.878906 L 217.757812 105.851562 C 217.757812 76.925781 194.226562 53.394531 165.300781 53.394531 C 136.375 53.394531 112.84375 76.925781 112.84375 105.851562 L 112.84375 203.878906 L 88.503906 203.878906 L 88.503906 106.90625 Z M 187.726562 203.875 L 142.875 203.875 L 142.875 105.851562 C 142.875 93.488281 152.933594 83.425781 165.300781 83.425781 C 177.664062 83.425781 187.726562 93.488281 187.726562 105.851562 Z M 300.566406 481.96875 L 30.035156 481.96875 L 30.035156 233.910156 L 300.566406 233.910156 Z M 300.566406 481.96875 " data-original="#000000" class="active-path" data-old_color="#2b2c2e" fill="#2b2c2e"/>
<path d="M 117.371094 429.0625 C 120.304688 431.996094 124.148438 433.460938 127.992188 433.460938 C 131.832031 433.460938 135.675781 431.996094 138.609375 429.0625 L 259.621094 308.050781 C 265.484375 302.1875 265.484375 292.679688 259.621094 286.8125 C 253.757812 280.949219 244.25 280.949219 238.382812 286.8125 L 127.992188 397.207031 L 92.363281 361.582031 C 86.5 355.71875 76.992188 355.71875 71.128906 361.582031 C 65.265625 367.445312 65.265625 376.953125 71.128906 382.820312 Z M 117.371094 429.0625 " data-original="#000000" class="active-path" data-old_color="#2b2c2e" fill="#2b2c2e"/>
</g></g> </svg>
