<?xml version="1.0" encoding="utf-8"?>
<!-- Copyright 2015 Adobe Systems Incorporated.  All rights reserved. -->
<!-- Generator: Adobe Illustrator 18.1.1, SVG Export Plug-In . SVG Version: 6.00 Build 0)  -->
<svg version="1.1" id="Layer_1" xmlns="http://www.w3.org/2000/svg" xmlns:xlink="http://www.w3.org/1999/xlink" x="0px" y="0px"
	 viewBox="0 0 612 792" enable-background="new 0 0 612 792" xml:space="preserve">
<path fill="#FFFFFF" d="M220.2,240.3c-2.4,0-4.3,1.8-4.3,4.3V512c0,2.4,1.8,4.3,4.3,4.3h153c2.4,0,4.3-1.8,4.3-4.3V244.6
	c0-2.4-1.8-4.3-4.3-4.3H220.2z M368.9,507.1H224.5V248.9h144.4V507.1L368.9,507.1z"/>
<path fill="#FFFFFF" d="M296.7,521.8c-7.3,0-13.5,6.1-13.5,13.5c0,7.3,6.1,13.5,13.5,13.5c7.3,0,13.5-6.1,13.5-13.5
	C310.2,527.3,304,521.8,296.7,521.8z M296.7,543.2c-4.3,0-8-3.7-8-8s3.7-8,8-8s8,3.7,8,8C304.6,539.6,301,543.2,296.7,543.2z"/>
<path fill="#FFFFFF" d="M220.2,197.5c-11.6,0-21.4,9.8-21.4,21.4V542c0,11.6,9.8,21.4,21.4,21.4h153c11.6,0,21.4-9.8,21.4-21.4
	V218.9c0-11.6-9.8-21.4-21.4-21.4H220.2z M386,218.9V542c0,6.7-5.5,12.9-12.9,12.9h-153c-6.7,0-12.9-5.5-12.9-12.9V218.9
	c0-6.7,5.5-12.9,12.9-12.9h153C380.5,206,386,212.1,386,218.9z"/>
<rect x="277.7" y="218.9" fill="#FFFFFF" width="37.3" height="9.8"/>
<path fill="none" stroke="#FFFFFF" stroke-width="6" stroke-miterlimit="10" d="M269.8,401.9c3.1-12.9,15.3-22,28.2-21.4
	c12.2,0.6,22.6,9.2,25.7,21.4"/>
<circle fill="#FFFFFF" cx="269.8" cy="334.5" r="5.5"/>
<circle fill="#FFFFFF" cx="323.6" cy="334.5" r="5.5"/>
</svg>
