<?xml version="1.0" encoding="utf-8"?>
<!-- Copyright 2015 Adobe Systems Incorporated.  All rights reserved. -->
<!-- Generator: Adobe Illustrator 19.1.0, SVG Export Plug-In . SVG Version: 6.00 Build 0)  -->
<svg version="1.1" id="Layer_1" xmlns="http://www.w3.org/2000/svg" xmlns:xlink="http://www.w3.org/1999/xlink" x="0px" y="0px"
	 viewBox="-173 -116 612 792" style="enable-background:new -173 -116 612 792;" xml:space="preserve">
<style type="text/css">
	.st0{fill:#FFFFFF;}
	.st1{fill:none;stroke:#FFFFFF;stroke-width:14;stroke-miterlimit:10;}
	.st2{fill:none;stroke:#FFFFFF;stroke-width:10;stroke-miterlimit:10;}
</style>
<path class="st0" d="M-11.9,13.1c-4.7,0-8.4,3.5-8.4,8.4v520.2c0,4.7,3.5,8.4,8.4,8.4h297.6c4.7,0,8.4-3.5,8.4-8.4V21.5
	c0-4.7-3.5-8.4-8.4-8.4H-11.9z M277.4,532.1H-3.5V29.6h280.9L277.4,532.1L277.4,532.1z"/>
<path class="st0" d="M136.9,559.5c-14.2,0-26.3,11.9-26.3,26.3c0,14.2,11.9,26.3,26.3,26.3c14.4,0,26.3-11.9,26.3-26.3
	C163.2,571.4,151.3,559.5,136.9,559.5z M136.9,601.1c-8.4,0-15.6-7.2-15.6-15.6c0-8.4,7.2-15.6,15.6-15.6c8.4,0,15.6,7.2,15.6,15.6
	C152.5,593.9,145.3,601.1,136.9,601.1z"/>
<path class="st0" d="M-11.9-70.4c-22.6,0-41.6,19.1-41.6,41.6v628.5c0,22.6,19.1,41.6,41.6,41.6h297.6c22.6,0,41.6-19.1,41.6-41.6
	V-28.7c0-22.6-19.1-41.6-41.6-41.6H-11.9z M310.8-28.7v628.5c0,13-10.7,25.1-25.1,25.1H-11.9c-13,0-25.1-10.7-25.1-25.1V-28.7
	c0-13,10.7-25.1,25.1-25.1h297.6C299-53.6,310.8-42.9,310.8-28.7z"/>
<path class="st1" d="M63.2,221.4c8.4-35.8,41.6-59.5,77.4-58.4c33.3,1.2,63,25.1,71.4,58.4"/>
<path class="st1" d="M84.6,248.7c6-25.1,29.8-42.8,54.9-41.6c23.7,1.2,44,17.9,50,41.6"/>
<line class="st2" x1="116.9" y1="250.8" x2="158.1" y2="285.8"/>
<line class="st2" x1="155" y1="247.7" x2="120" y2="287.8"/>
</svg>
